<svg width="756" height="186" viewBox="0 0 756 186" fill="none" xmlns="http://www.w3.org/2000/svg">
<path d="M378 185.5C482.134 185.5 576.425 175.2 644.698 158.54C678.83 150.21 706.487 140.284 725.623 129.244C744.722 118.224 755.5 105.994 755.5 93C755.5 80.0056 744.722 67.7757 725.623 56.7564C706.487 45.7157 678.83 35.7898 644.698 27.4604C576.425 10.7997 482.134 0.5 378 0.5C273.866 0.5 179.575 10.7997 111.302 27.4604C77.1698 35.7898 49.5127 45.7157 30.3767 56.7564C11.2776 67.7757 0.5 80.0056 0.5 93C0.5 105.994 11.2776 118.224 30.3767 129.244C49.5127 140.284 77.1698 150.21 111.302 158.54C179.575 175.2 273.866 185.5 378 185.5Z" stroke="#3B2F29"/>
</svg>
