<svg xmlns="http://www.w3.org/2000/svg" version="1.1" xmlns:xlink="http://www.w3.org/1999/xlink" xmlns:svgjs="http://svgjs.dev/svgjs" viewBox="0 0 800 400"><path d="M107.62332153320312,156.95066833496094C129.21226081848144,163.14947336832682,162.93722696940102,185.52466227213543,198.20628356933594,182.9596405029297C233.47534016927085,180.39461873372395,226.96262804667154,149.3946164449056,255.60537719726562,146.18833923339844C284.2481263478597,142.98206202189127,293.5904305013021,172.49925331115722,318.3856506347656,169.50672912597656C343.18087076822917,166.5142049407959,337.8385735575358,134.91480458577473,359.6412658691406,133.63229370117188C381.4439581807454,132.34978281656902,387.84903681437174,165.83558151245117,409.865478515625,164.1255645751953C431.88192021687826,162.41554763793945,433.2077798461914,126.671150487264,452.0179443359375,126.4573974609375C470.8281088256836,126.243644434611,472.9716162109375,165.36621626536052,488.78924560546875,163.22869873046875C504.606875,161.09118119557698,502.35422678629556,120.26756721496582,518.3856201171875,117.4887924194336C534.4170134480794,114.71001762390136,532.3273743693034,154.13452737172446,556.0538330078125,151.5695037841797C579.7802916463216,149.00448019663492,603.188326924642,117.41404881795248,617.9371948242188,106.72645568847656" fill="none" stroke-width="1" stroke="#967968" stroke-linecap="round" stroke-dasharray="0 0" stroke-opacity="1"></path><defs><linearGradient id="SvgjsLinearGradient1000"><stop stop-color="hsl(37, 99%, 67%)" offset="0"></stop><stop stop-color="hsl(316, 73%, 52%)" offset="1"></stop></linearGradient></defs></svg>